<svg width="151" height="30" viewBox="0 0 151 30" fill="none" xmlns="http://www.w3.org/2000/svg">
<path d="M13.543 0.797108C13.964 0.400964 14.6179 0.400964 15.039 0.797108L28.2323 13.2099C28.9584 13.8931 28.4781 15.1183 27.4843 15.1183H26.1584V28.581C26.1584 29.0886 25.7497 29.5 25.2456 29.5H18.1251V17.186C18.1251 16.8814 17.8798 16.6346 17.5773 16.6346H11.3697C11.0672 16.6346 10.822 16.8814 10.822 17.186V29.5H3.70153C3.19736 29.5 2.78865 29.0886 2.78865 28.581V15.1183H1.09767C0.103769 15.1183 -0.376463 13.8931 0.349663 13.2099L13.543 0.797108Z" fill="#2276C5"/>
<path d="M59.2504 15.3196C59.2504 17.5498 58.8338 19.4472 58.0005 21.0117C57.1737 22.5762 56.0451 23.7712 54.6147 24.5968C53.1909 25.4156 51.5899 25.8251 49.8117 25.8251C48.0204 25.8251 46.4128 25.4123 44.989 24.5868C43.5651 23.7612 42.4398 22.5662 41.6131 21.0017C40.7863 19.4372 40.373 17.5432 40.373 15.3196C40.373 13.0893 40.7863 11.1919 41.6131 9.62741C42.4398 8.0629 43.5651 6.87121 44.989 6.05234C46.4128 5.22681 48.0204 4.81405 49.8117 4.81405C51.5899 4.81405 53.1909 5.22681 54.6147 6.05234C56.0451 6.87121 57.1737 8.0629 58.0005 9.62741C58.8338 11.1919 59.2504 13.0893 59.2504 15.3196ZM54.9297 15.3196C54.9297 13.8749 54.7164 12.6566 54.2899 11.6646C53.87 10.6726 53.2762 9.92034 52.5085 9.40771C51.7408 8.89509 50.8419 8.63877 49.8117 8.63877C48.7815 8.63877 47.8826 8.89509 47.1149 9.40771C46.3472 9.92034 45.7501 10.6726 45.3236 11.6646C44.9037 12.6566 44.6937 13.8749 44.6937 15.3196C44.6937 16.7642 44.9037 17.9826 45.3236 18.9745C45.7501 19.9665 46.3472 20.7188 47.1149 21.2314C47.8826 21.744 48.7815 22.0003 49.8117 22.0003C50.8419 22.0003 51.7408 21.744 52.5085 21.2314C53.2762 20.7188 53.87 19.9665 54.2899 18.9745C54.7164 17.9826 54.9297 16.7642 54.9297 15.3196Z" fill="#2D2D2D"/>
<path d="M62.3286 25.5455V10.2066H66.3246V12.9129H66.5017C66.8167 12.0141 67.3416 11.3051 68.0765 10.7858C68.8114 10.2665 69.6906 10.0069 70.7142 10.0069C71.7509 10.0069 72.6334 10.2699 73.3618 10.7958C74.0901 11.3151 74.5756 12.0208 74.8184 12.9129H74.9759C75.2843 12.0341 75.842 11.3317 76.6491 10.8058C77.4627 10.2732 78.424 10.0069 79.5329 10.0069C80.9436 10.0069 82.0886 10.4629 82.9678 11.375C83.8536 12.2804 84.2965 13.5653 84.2965 15.2297V25.5455H80.1136V16.0685C80.1136 15.2164 79.8905 14.5772 79.4443 14.1512C78.9981 13.7251 78.4404 13.5121 77.7711 13.5121C77.01 13.5121 76.4162 13.7584 75.9897 14.251C75.5632 14.737 75.3499 15.3795 75.3499 16.1784V25.5455H71.285V15.9787C71.285 15.2264 71.0718 14.6272 70.6453 14.1811C70.2254 13.7351 69.6709 13.5121 68.982 13.5121C68.5161 13.5121 68.0962 13.6319 67.7222 13.8716C67.3547 14.1046 67.0627 14.4341 66.8462 14.8602C66.6297 15.2796 66.5214 15.7723 66.5214 16.3382V25.5455H62.3286Z" fill="#2D2D2D"/>
<path d="M91.9193 25.8351C90.9548 25.8351 90.0953 25.6653 89.3407 25.3258C88.5861 24.9796 87.989 24.4703 87.5494 23.7979C87.1163 23.1188 86.8998 22.2733 86.8998 21.2614C86.8998 20.4092 87.054 19.6935 87.3624 19.1143C87.6708 18.5351 88.0907 18.0691 88.6222 17.7163C89.1537 17.3634 89.7573 17.0971 90.4332 16.9174C91.1156 16.7376 91.8308 16.6111 92.5788 16.5379C93.458 16.4447 94.1667 16.3581 94.7047 16.2782C95.2428 16.1917 95.6332 16.0652 95.8759 15.8988C96.1187 15.7323 96.2401 15.486 96.2401 15.1598V15.0999C96.2401 14.4674 96.0433 13.9781 95.6496 13.6319C95.2624 13.2857 94.7113 13.1126 93.9961 13.1126C93.2415 13.1126 92.6411 13.2824 92.1949 13.6219C91.7488 13.9548 91.4535 14.3742 91.3091 14.8802L87.4313 14.5606C87.6281 13.6286 88.0153 12.823 88.5927 12.1439C89.1701 11.4582 89.9148 10.9323 90.8269 10.5661C91.7455 10.1933 92.8084 10.0069 94.0158 10.0069C94.8556 10.0069 95.6594 10.1067 96.4271 10.3065C97.2014 10.5062 97.887 10.8158 98.4841 11.2352C99.0878 11.6546 99.5635 12.1939 99.9113 12.853C100.259 13.5054 100.433 14.2876 100.433 15.1997V25.5455H96.4566V23.4184H96.3385C96.0958 23.8977 95.771 24.3205 95.3641 24.6866C94.9573 25.0461 94.4685 25.3291 93.8977 25.5355C93.3268 25.7352 92.6674 25.8351 91.9193 25.8351ZM93.1201 22.8991C93.7369 22.8991 94.2815 22.7759 94.7539 22.5296C95.2263 22.2766 95.5971 21.9371 95.8661 21.511C96.1351 21.0849 96.2696 20.6023 96.2696 20.063V18.4353C96.1384 18.5218 95.958 18.6017 95.7283 18.6749C95.5052 18.7415 95.2526 18.8048 94.9705 18.8647C94.6883 18.9179 94.4062 18.9679 94.124 19.0145C93.8419 19.0544 93.586 19.091 93.3563 19.1243C92.8642 19.1975 92.4344 19.314 92.067 19.4738C91.6995 19.6336 91.4141 19.85 91.2107 20.1229C91.0073 20.3892 90.9056 20.7221 90.9056 21.1216C90.9056 21.7008 91.1123 22.1435 91.5257 22.4497C91.9456 22.7493 92.4771 22.8991 93.1201 22.8991Z" fill="#2D2D2D"/>
<path d="M107.879 16.6777V25.5455H103.686V5.09366H107.76V12.9129H107.938C108.279 12.0075 108.83 11.2984 109.591 10.7858C110.352 10.2665 111.307 10.0069 112.455 10.0069C113.505 10.0069 114.42 10.2399 115.201 10.7059C115.989 11.1653 116.599 11.8277 117.032 12.6932C117.472 13.552 117.688 14.5806 117.681 15.7789V25.5455H113.489V16.5379C113.495 15.5925 113.259 14.8569 112.78 14.3309C112.308 13.805 111.645 13.542 110.792 13.542C110.221 13.542 109.716 13.6652 109.276 13.9115C108.843 14.1578 108.502 14.5173 108.253 14.99C108.01 15.456 107.885 16.0186 107.879 16.6777Z" fill="#2D2D2D"/>
<path d="M124.78 21.1315L124.79 16.0286H125.4L130.243 10.2066H135.056L128.55 17.916H127.556L124.78 21.1315ZM120.981 25.5455V5.09366H125.174V25.5455H120.981ZM130.43 25.5455L125.981 18.8647L128.776 15.8588L135.341 25.5455H130.43Z" fill="#2D2D2D"/>
<path d="M146.807 19.0145V10.2066H151V25.5455H146.975V22.7593H146.817C146.476 23.6581 145.908 24.3804 145.114 24.9263C144.327 25.4722 143.366 25.7452 142.231 25.7452C141.22 25.7452 140.331 25.5122 139.563 25.0461C138.796 24.5801 138.195 23.9177 137.762 23.0589C137.336 22.2001 137.119 21.1715 137.113 19.9731V10.2066H141.305V19.2142C141.312 20.1196 141.551 20.8353 142.024 21.3612C142.496 21.8872 143.129 22.1501 143.923 22.1501C144.429 22.1501 144.901 22.0336 145.341 21.8006C145.78 21.5609 146.135 21.2081 146.404 20.7421C146.679 20.2761 146.814 19.7002 146.807 19.0145Z" fill="#2D2D2D"/>
</svg>
