<svg width="16" height="16" viewBox="0 0 16 16" fill="none" xmlns="http://www.w3.org/2000/svg">
<path d="M2 8.00002H2.66667M2.66667 8.00002H13.3333M2.66667 8.00002V9.33335C2.66667 10.092 3.05533 11.4987 4.49667 11.894M13.3333 8.00002C13.5101 8.00002 13.6797 7.92978 13.8047 7.80476C13.9298 7.67973 14 7.51016 14 7.33335V4.66669C14 4.00002 13.6 2.66669 12 2.66669C10.4 2.66669 10 4.00002 10 4.66669M13.3333 8.00002V9.33335C13.3333 10.092 12.9447 11.4987 11.5033 11.894M10 4.66669H8.66667M10 4.66669H11.3333M11.5033 11.894C11.2305 11.9668 10.9491 12.0025 10.6667 12H5.33333C5.02133 12 4.74333 11.962 4.49667 11.894M11.5033 11.894L12 13.3334M4.49667 11.894L4 13.3334" stroke="#2D2D2D" stroke-width="2" stroke-linecap="round" stroke-linejoin="round"/>
</svg>
