<svg width="16" height="16" viewBox="0 0 16 16" fill="none" xmlns="http://www.w3.org/2000/svg">
<path d="M1.33333 12.6666V8.66665C1.33333 8.36665 1.39444 8.09442 1.51667 7.84998C1.63889 7.60553 1.8 7.38887 2 7.19998V5.33331C2 4.77776 2.19444 4.30554 2.58333 3.91665C2.97222 3.52776 3.44444 3.33331 4 3.33331H6.66667C6.92222 3.33331 7.16111 3.38065 7.38333 3.47531C7.60556 3.56998 7.81111 3.70042 8 3.86665C8.18889 3.69998 8.39444 3.56954 8.61667 3.47531C8.83889 3.38109 9.07778 3.33376 9.33333 3.33331H12C12.5556 3.33331 13.0278 3.52776 13.4167 3.91665C13.8056 4.30554 14 4.77776 14 5.33331V7.19998C14.2 7.38887 14.3611 7.60553 14.4833 7.84998C14.6056 8.09442 14.6667 8.36665 14.6667 8.66665V12.6666H13.3333V11.3333H2.66667V12.6666H1.33333ZM8.66667 6.66665H12.6667V5.33331C12.6667 5.14442 12.6027 4.98598 12.4747 4.85798C12.3467 4.72998 12.1884 4.6662 12 4.66665H9.33333C9.14444 4.66665 8.986 4.73065 8.858 4.85865C8.73 4.98665 8.66622 5.14487 8.66667 5.33331V6.66665ZM3.33333 6.66665H7.33333V5.33331C7.33333 5.14442 7.26933 4.98598 7.14133 4.85798C7.01333 4.72998 6.85511 4.6662 6.66667 4.66665H4C3.81111 4.66665 3.65267 4.73065 3.52467 4.85865C3.39667 4.98665 3.33289 5.14487 3.33333 5.33331V6.66665ZM2.66667 9.99998H13.3333V8.66665C13.3333 8.47776 13.2693 8.31931 13.1413 8.19131C13.0133 8.06331 12.8551 7.99954 12.6667 7.99998H3.33333C3.14444 7.99998 2.986 8.06398 2.858 8.19198C2.73 8.31998 2.66622 8.4782 2.66667 8.66665V9.99998Z" fill="#2D2D2D"/>
</svg>
