<svg width="48" height="48" viewBox="0 0 48 48" fill="none" xmlns="http://www.w3.org/2000/svg">
<rect width="48" height="48" rx="24" fill="#EDF6FE"/>
<path d="M31.5484 29.635L32.0034 33.3217C32.12 34.29 31.0817 34.9667 30.2534 34.465L26.2167 32.0617C25.9367 31.8983 25.8667 31.5483 26.0184 31.2683C26.6017 30.195 26.9167 28.9817 26.9167 27.7683C26.9167 23.4983 23.2534 20.0217 18.75 20.0217C17.8284 20.0217 16.93 20.1617 16.09 20.4417C15.9907 20.4723 15.8851 20.4761 15.7838 20.4527C15.6825 20.4293 15.5892 20.3796 15.5134 20.3085C15.4376 20.2374 15.3819 20.1475 15.3521 20.048C15.3222 19.9484 15.3192 19.8428 15.3434 19.7417C16.405 15.495 20.4884 12.3333 25.365 12.3333C31.0584 12.3333 35.6667 16.6383 35.6667 21.9467C35.6667 25.0967 34.045 27.885 31.5484 29.635Z" fill="#2276C5"/>
<path d="M25.1666 27.7683C25.1666 29.1567 24.6533 30.44 23.79 31.455C22.635 32.855 20.8033 33.7533 18.75 33.7533L15.705 35.5617C15.1916 35.8767 14.5383 35.445 14.6083 34.85L14.9 32.5517C13.3366 31.4667 12.3333 29.7283 12.3333 27.7683C12.3333 25.715 13.43 23.9067 15.11 22.8333C16.1483 22.1567 17.3966 21.7717 18.75 21.7717C22.2966 21.7717 25.1666 24.455 25.1666 27.7683Z" fill="#2276C5"/>
</svg>
