<svg width="16" height="16" viewBox="0 0 16 16" fill="none" xmlns="http://www.w3.org/2000/svg">
<g clip-path="url(#clip0_0_68)">
<path d="M8.93332 11.612H7.25998C6.16665 11.612 5.27998 10.692 5.27998 9.55871C5.27998 9.28538 5.50665 9.05871 5.77998 9.05871C6.05332 9.05871 6.27998 9.28538 6.27998 9.55871C6.27998 10.1387 6.71998 10.612 7.25998 10.612H8.93332C9.36665 10.612 9.72665 10.2254 9.72665 9.75871C9.72665 9.17871 9.51998 9.06538 9.17998 8.94538L6.49332 7.99871C5.97332 7.81871 5.27332 7.43204 5.27332 6.23871C5.27332 5.21204 6.07998 4.38538 7.06665 4.38538H8.73998C9.83331 4.38538 10.72 5.30538 10.72 6.43871C10.72 6.71204 10.4933 6.93871 10.22 6.93871C9.94665 6.93871 9.71998 6.71204 9.71998 6.43871C9.71998 5.85871 9.27998 5.38538 8.73998 5.38538H7.06665C6.63332 5.38538 6.27332 5.77204 6.27332 6.23871C6.27332 6.81871 6.47998 6.93204 6.81998 7.05204L9.50665 7.99871C10.0266 8.17871 10.7266 8.56538 10.7266 9.75871C10.72 10.7787 9.91998 11.612 8.93332 11.612Z" fill="#9496A5"/>
<path d="M8 12.5C7.72667 12.5 7.5 12.2733 7.5 12V4C7.5 3.72667 7.72667 3.5 8 3.5C8.27333 3.5 8.5 3.72667 8.5 4V12C8.5 12.2733 8.27333 12.5 8 12.5Z" fill="#9496A5"/>
<path d="M7.99998 15.1667C4.04665 15.1667 0.833313 11.9534 0.833313 8.00004C0.833313 4.04671 4.04665 0.833374 7.99998 0.833374C11.9533 0.833374 15.1666 4.04671 15.1666 8.00004C15.1666 11.9534 11.9533 15.1667 7.99998 15.1667ZM7.99998 1.83337C4.59998 1.83337 1.83331 4.60004 1.83331 8.00004C1.83331 11.4 4.59998 14.1667 7.99998 14.1667C11.4 14.1667 14.1666 11.4 14.1666 8.00004C14.1666 4.60004 11.4 1.83337 7.99998 1.83337Z" fill="#9496A5"/>
</g>
<defs>
<clipPath id="clip0_0_68">
<rect width="16" height="16" fill="white"/>
</clipPath>
</defs>
</svg>
