<svg width="16" height="16" viewBox="0 0 16 16" fill="none" xmlns="http://www.w3.org/2000/svg">
<g clip-path="url(#clip0_0_60)">
<path d="M11.86 15.1667H4.14001C2.31334 15.1667 0.833344 13.68 0.833344 11.8534V6.91336C0.833344 6.00669 1.39334 4.86669 2.11334 4.30669L5.70668 1.50669C6.78668 0.66669 8.51334 0.62669 9.63334 1.41336L13.7533 4.30002C14.5467 4.85336 15.1667 6.04002 15.1667 7.00669V11.86C15.1667 13.68 13.6867 15.1667 11.86 15.1667ZM6.32001 2.29336L2.72668 5.09336C2.25334 5.46669 1.83334 6.31336 1.83334 6.91336V11.8534C1.83334 12.4657 2.07615 13.0531 2.50854 13.4868C2.94094 13.9204 3.52763 14.1649 4.14001 14.1667H11.86C13.1333 14.1667 14.1667 13.1334 14.1667 11.86V7.00669C14.1667 6.36669 13.7067 5.48002 13.18 5.12002L9.06001 2.23336C8.30001 1.70002 7.04668 1.72669 6.32001 2.29336Z" fill="#9496A5"/>
<path d="M8 12.5C7.72667 12.5 7.5 12.2733 7.5 12V10C7.5 9.72667 7.72667 9.5 8 9.5C8.27333 9.5 8.5 9.72667 8.5 10V12C8.5 12.2733 8.27333 12.5 8 12.5Z" fill="#9496A5"/>
</g>
<defs>
<clipPath id="clip0_0_60">
<rect width="16" height="16" fill="white"/>
</clipPath>
</defs>
</svg>
