<svg width="48" height="48" viewBox="0 0 48 48" fill="none" xmlns="http://www.w3.org/2000/svg">
<rect width="48" height="48" rx="24" fill="#EDF6FE"/>
<path d="M27.5 18.2483C27.5 17.4667 27.115 16.7433 26.4617 16.3117L21.795 13.1967C21.0133 12.6717 19.9867 12.6717 19.205 13.1967L14.5383 16.3117C13.8967 16.7433 13.5 17.4667 13.5 18.2483V24.875C13.5 25.2017 13.7567 25.4583 14.0833 25.4583H26.9167C27.2433 25.4583 27.5 25.2017 27.5 24.875V18.2483ZM20.5 22.5417C19.38 22.5417 18.4583 21.62 18.4583 20.5C18.4583 19.38 19.38 18.4583 20.5 18.4583C21.62 18.4583 22.5417 19.38 22.5417 20.5C22.5417 21.62 21.62 22.5417 20.5 22.5417Z" fill="#2276C5"/>
<path d="M35.6666 34.7928H34.185V31.2928C35.2933 30.9312 36.0983 29.8928 36.0983 28.6678V26.3345C36.0983 24.8062 34.85 23.5578 33.3216 23.5578C31.7933 23.5578 30.545 24.8062 30.545 26.3345V28.6678C30.545 29.8812 31.3383 30.9078 32.4233 31.2812V34.7928H27.5V27.7928C27.5 27.4662 27.2433 27.2095 26.9166 27.2095H14.0833C13.7566 27.2095 13.5 27.4662 13.5 27.7928V34.7928H12.3333C11.855 34.7928 11.4583 35.1895 11.4583 35.6678C11.4583 36.1462 11.855 36.5428 12.3333 36.5428H33.2516C33.275 36.5428 33.2866 36.5545 33.31 36.5545C33.3333 36.5545 33.345 36.5428 33.3683 36.5428H35.6666C36.145 36.5428 36.5416 36.1462 36.5416 35.6678C36.5416 35.1895 36.145 34.7928 35.6666 34.7928ZM19.625 31.2928C19.625 30.8145 20.0216 30.4178 20.5 30.4178C20.9783 30.4178 21.375 30.8145 21.375 31.2928V34.7928H19.625V31.2928Z" fill="#2276C5"/>
</svg>
