<svg width="20" height="20" viewBox="0 0 20 20" fill="none" xmlns="http://www.w3.org/2000/svg">
<path d="M10 7.29175C9.28173 7.29175 8.59285 7.57709 8.08494 8.085C7.57703 8.59291 7.29169 9.28179 7.29169 10.0001C7.29169 10.7184 7.57703 11.4073 8.08494 11.9152C8.59285 12.4231 9.28173 12.7084 10 12.7084C10.7183 12.7084 11.4072 12.4231 11.9151 11.9152C12.423 11.4073 12.7084 10.7184 12.7084 10.0001C12.7084 9.28179 12.423 8.59291 11.9151 8.085C11.4072 7.57709 10.7183 7.29175 10 7.29175Z" fill="#FDFDFD"/>
<path fill-rule="evenodd" clip-rule="evenodd" d="M5.64168 2.56845C8.53837 2.24737 11.4617 2.24737 14.3583 2.56845C15.9408 2.74512 17.2167 3.99095 17.4025 5.57928C17.746 8.51649 17.746 11.4837 17.4025 14.4209C17.2167 16.0093 15.9408 17.2551 14.3592 17.4326C11.4622 17.7538 8.53864 17.7538 5.64168 17.4326C4.05918 17.2551 2.78335 16.0093 2.59751 14.4218C2.25395 11.4843 2.25395 8.51677 2.59751 5.57928C2.78335 3.99095 4.05918 2.74512 5.64168 2.56845ZM14.1667 5.00012C13.9457 5.00012 13.7337 5.08791 13.5774 5.24419C13.4211 5.40047 13.3333 5.61243 13.3333 5.83345C13.3333 6.05446 13.4211 6.26642 13.5774 6.4227C13.7337 6.57898 13.9457 6.66678 14.1667 6.66678C14.3877 6.66678 14.5997 6.57898 14.7559 6.4227C14.9122 6.26642 15 6.05446 15 5.83345C15 5.61243 14.9122 5.40047 14.7559 5.24419C14.5997 5.08791 14.3877 5.00012 14.1667 5.00012ZM6.04168 10.0001C6.04168 8.9503 6.45872 7.94348 7.20105 7.20115C7.94338 6.45882 8.9502 6.04178 10 6.04178C11.0498 6.04178 12.0566 6.45882 12.799 7.20115C13.5413 7.94348 13.9583 8.9503 13.9583 10.0001C13.9583 11.0499 13.5413 12.0567 12.799 12.7991C12.0566 13.5414 11.0498 13.9584 10 13.9584C8.9502 13.9584 7.94338 13.5414 7.20105 12.7991C6.45872 12.0567 6.04168 11.0499 6.04168 10.0001Z" fill="#FDFDFD"/>
</svg>
