<svg width="16" height="16" viewBox="0 0 16 16" fill="none" xmlns="http://www.w3.org/2000/svg">
<g clip-path="url(#clip0_0_75)">
<path d="M7.66665 14.5C3.89998 14.5 0.833313 11.4334 0.833313 7.66671C0.833313 3.90004 3.89998 0.833374 7.66665 0.833374C11.4333 0.833374 14.5 3.90004 14.5 7.66671C14.5 11.4334 11.4333 14.5 7.66665 14.5ZM7.66665 1.83337C4.44665 1.83337 1.83331 4.45337 1.83331 7.66671C1.83331 10.88 4.44665 13.5 7.66665 13.5C10.8866 13.5 13.5 10.88 13.5 7.66671C13.5 4.45337 10.8866 1.83337 7.66665 1.83337ZM14.6666 15.1674C14.54 15.1674 14.4133 15.1207 14.3133 15.0207L12.98 13.6874C12.887 13.5933 12.8348 13.4663 12.8348 13.334C12.8348 13.2018 12.887 13.0748 12.98 12.9807C13.1733 12.7874 13.4933 12.7874 13.6866 12.9807L15.02 14.314C15.2133 14.5074 15.2133 14.8274 15.02 15.0207C14.92 15.1207 14.7933 15.1674 14.6666 15.1674Z" fill="#FDFDFD"/>
</g>
<defs>
<clipPath id="clip0_0_75">
<rect width="16" height="16" fill="white"/>
</clipPath>
</defs>
</svg>
