<svg width="48" height="48" viewBox="0 0 48 48" fill="none" xmlns="http://www.w3.org/2000/svg">
<rect width="48" height="48" rx="24" fill="#EDF6FE"/>
<path d="M28.8883 12.3333H19.1116C14.865 12.3333 12.3333 14.865 12.3333 19.1117V28.8767C12.3333 33.135 14.865 35.6667 19.1116 35.6667H28.8766C33.1233 35.6667 35.655 33.135 35.655 28.8883V19.1117C35.6666 14.865 33.135 12.3333 28.8883 12.3333ZM18.9016 31.175C18.9016 31.6533 18.505 32.05 18.0266 32.05C17.5483 32.05 17.1516 31.6533 17.1516 31.175V28.76C17.1516 28.2817 17.5483 27.885 18.0266 27.885C18.505 27.885 18.9016 28.2817 18.9016 28.76V31.175ZM24.875 31.175C24.875 31.6533 24.4783 32.05 24 32.05C23.5216 32.05 23.125 31.6533 23.125 31.175V26.3333C23.125 25.855 23.5216 25.4583 24 25.4583C24.4783 25.4583 24.875 25.855 24.875 26.3333V31.175ZM30.8483 31.175C30.8483 31.6533 30.4516 32.05 29.9733 32.05C29.495 32.05 29.0983 31.6533 29.0983 31.175V23.9183C29.0983 23.44 29.495 23.0433 29.9733 23.0433C30.4516 23.0433 30.8483 23.44 30.8483 23.9183V31.175ZM30.8483 20.2317C30.8483 20.71 30.4516 21.1067 29.9733 21.1067C29.495 21.1067 29.0983 20.71 29.0983 20.2317V19.1C26.1334 22.1587 22.3705 24.3251 18.2366 25.3533C18.1666 25.3767 18.0966 25.3767 18.0266 25.3767C17.63 25.3767 17.28 25.1083 17.175 24.7117C17.0583 24.245 17.3383 23.7667 17.8166 23.65C21.7184 22.677 25.2604 20.6085 28.025 17.6883H26.5666C26.0883 17.6883 25.6916 17.2917 25.6916 16.8133C25.6916 16.335 26.0883 15.9383 26.5666 15.9383H29.985C30.0316 15.9383 30.0666 15.9617 30.1133 15.9617C30.1716 15.9733 30.23 15.9733 30.2883 15.9967C30.3466 16.02 30.3933 16.055 30.4516 16.09C30.4866 16.1133 30.5216 16.125 30.5566 16.1483C30.5683 16.16 30.5683 16.1717 30.58 16.1717C30.6266 16.2183 30.6616 16.265 30.6966 16.3117C30.7316 16.3583 30.7666 16.3933 30.7783 16.44C30.8016 16.4867 30.8016 16.5333 30.8133 16.5917C30.825 16.65 30.8483 16.7083 30.8483 16.7783C30.8483 16.79 30.86 16.8017 30.86 16.8133V20.2317H30.8483Z" fill="#2276C5"/>
</svg>
